<svg xmlns="http://www.w3.org/2000/svg" xmlns:xlink="http://www.w3.org/1999/xlink" width="500" zoomAndPan="magnify" viewBox="0 0 375 149.999998" height="200" preserveAspectRatio="xMidYMid meet" version="1.0"><defs><g/><clipPath id="3e1e89166c"><path d="M 14 76 L 108 76 L 108 124 L 14 124 Z M 14 76 " clip-rule="nonzero"/></clipPath><clipPath id="ef23541dbb"><path d="M 81.042969 151.085938 L 1.554688 94.621094 L 43.25 35.921875 L 122.738281 92.386719 Z M 81.042969 151.085938 " clip-rule="nonzero"/></clipPath><clipPath id="596146fce2"><path d="M 81.042969 151.085938 L 1.554688 94.621094 L 43.25 35.921875 L 122.738281 92.386719 Z M 81.042969 151.085938 " clip-rule="nonzero"/></clipPath></defs><rect x="-37.5" width="450" fill="#ffffff" y="-15" height="179.999997" fill-opacity="1"/><rect x="-37.5" width="450" fill="#ffffff" y="-15" height="179.999997" fill-opacity="1"/><rect x="-37.5" width="450" fill="#ffffff" y="-15" height="179.999997" fill-opacity="1"/><g clip-path="url(#3e1e89166c)"><g clip-path="url(#ef23541dbb)"><g clip-path="url(#596146fce2)"><path fill="#59d8dd" d="M 86.898438 96.816406 C 85.746094 97.082031 84.789062 97.363281 83.8125 97.523438 C 80.558594 98.042969 77.3125 98.683594 74.035156 98.953125 C 70.496094 99.242188 67.671875 96.476562 67.164062 92.871094 C 67.03125 91.972656 66.253906 91.167969 65.710938 90.21875 C 65.976562 89.109375 67.074219 89.316406 67.925781 89.195312 C 75.671875 88.097656 82.949219 85.46875 89.972656 82.1875 C 92.660156 80.9375 95.117188 79.171875 97.621094 77.5625 C 99.589844 76.292969 99.859375 76.105469 101.6875 77.636719 C 104.945312 80.367188 107.121094 83.675781 107.191406 88.1875 C 107.324219 96.027344 107.90625 103.867188 106.640625 111.664062 C 106.429688 112.929688 106.0625 114.171875 105.597656 116.167969 C 103.125 113.644531 100.78125 112.007812 100.878906 108.695312 C 100.941406 106.667969 100.972656 104.640625 101.042969 101.863281 C 99.316406 103.609375 98.144531 104.832031 96.9375 106.011719 C 87.839844 114.894531 77.191406 121.175781 64.496094 122.703125 C 52.941406 124.105469 41.5625 122.660156 31.589844 115.761719 C 23.214844 109.960938 18.394531 101.648438 15.871094 92.003906 C 14.867188 88.140625 14.574219 84.082031 14.070312 80.097656 C 13.9375 79.066406 14.226562 77.988281 14.328125 76.929688 C 14.613281 76.886719 14.894531 76.84375 15.175781 76.804688 C 15.75 78.160156 16.394531 79.492188 16.855469 80.882812 C 17.136719 81.753906 17.15625 82.714844 17.253906 83.640625 C 18.535156 95.515625 25.308594 103.253906 35.957031 107.832031 C 44.089844 111.332031 52.617188 111.679688 61.210938 109.960938 C 70.285156 108.15625 78.382812 104.195312 85.625 98.460938 C 85.949219 98.207031 86.261719 97.933594 86.546875 97.640625 C 86.664062 97.5 86.699219 97.285156 86.898438 96.816406 Z M 86.898438 96.816406 " fill-opacity="1" fill-rule="nonzero"/></g></g></g><g fill="#3b82f6" fill-opacity="1"><g transform="translate(1.487935, 76.33198)"><g><path d="M -0.0898438 0 L 23.511719 0 L 25.863281 -9.945312 L 41.867188 -9.945312 L 43.949219 0 L 68.003906 0 L 48.46875 -65.109375 L 19.53125 -65.109375 Z M 28.664062 -25.320312 L 33.910156 -47.113281 L 34.089844 -47.113281 L 39.066406 -25.320312 Z M 28.664062 -25.320312 "/></g></g></g><g fill="#3b82f6" fill-opacity="1"><g transform="translate(69.481377, 76.33198)"><g><path d="M 2.710938 0 L 53.351562 0 L 53.351562 -18.085938 L 27.941406 -18.085938 L 52.449219 -44.492188 L 52.449219 -65.109375 L 3.617188 -65.109375 L 3.617188 -47.023438 L 27.128906 -47.023438 L 2.710938 -20.164062 Z M 2.710938 0 "/></g></g></g><g fill="#3b82f6" fill-opacity="1"><g transform="translate(125.539793, 76.33198)"><g><path d="M -0.0898438 0 L 23.511719 0 L 25.863281 -9.945312 L 41.867188 -9.945312 L 43.949219 0 L 68.003906 0 L 48.46875 -65.109375 L 19.53125 -65.109375 Z M 28.664062 -25.320312 L 33.910156 -47.113281 L 34.089844 -47.113281 L 39.066406 -25.320312 Z M 28.664062 -25.320312 "/></g></g></g><g fill="#3b82f6" fill-opacity="1"><g transform="translate(193.533234, 76.33198)"><g><path d="M 3.617188 0 L 39.15625 0 C 54.167969 0 62.394531 -6.421875 62.394531 -17.8125 C 62.394531 -26.222656 57.875 -31.558594 49.734375 -32.917969 L 49.734375 -33.097656 C 57.332031 -34.90625 61.492188 -39.96875 61.492188 -47.476562 C 61.492188 -58.777344 52.992188 -65.109375 37.707031 -65.109375 L 3.617188 -65.109375 Z M 27.128906 -39.335938 L 27.128906 -49.285156 L 33.550781 -49.285156 C 36.714844 -49.285156 38.433594 -47.566406 38.433594 -44.492188 C 38.433594 -41.234375 36.714844 -39.335938 33.550781 -39.335938 Z M 27.128906 -15.824219 L 27.128906 -26.222656 L 33.910156 -26.222656 C 37.167969 -26.222656 38.882812 -24.234375 38.882812 -20.617188 C 38.882812 -17.542969 37.167969 -15.824219 33.910156 -15.824219 Z M 27.128906 -15.824219 "/></g></g></g><g fill="#3b82f6" fill-opacity="1"><g transform="translate(257.548354, 76.33198)"><g><path d="M 3.617188 0 L 47.925781 0 L 47.925781 -18.085938 L 26.222656 -18.085938 L 26.222656 -25.320312 L 43.40625 -25.320312 L 43.40625 -40.691406 L 26.222656 -40.691406 L 26.222656 -47.023438 L 47.023438 -47.023438 L 47.023438 -65.109375 L 3.617188 -65.109375 Z M 3.617188 0 "/></g></g></g><g fill="#3b82f6" fill-opacity="1"><g transform="translate(307.096763, 76.33198)"><g><path d="M 50.730469 1.355469 C 56.246094 1.355469 62.214844 -0.453125 66.011719 -3.253906 L 63.210938 -13.472656 C 62.304688 -13.023438 61.128906 -12.570312 60.042969 -12.570312 C 58.6875 -12.570312 57.601562 -13.65625 57.242188 -15.464844 L 56.519531 -19.082031 C 55.703125 -22.605469 54.4375 -25.046875 50.910156 -26.132812 L 50.910156 -26.222656 C 58.328125 -28.9375 62.394531 -35.085938 62.394531 -43.316406 C 62.394531 -57.332031 52.628906 -65.109375 34.90625 -65.109375 L 3.617188 -65.109375 L 3.617188 0 L 27.128906 0 L 27.128906 -21.703125 L 29.75 -21.703125 C 32.101562 -21.703125 33.457031 -19.894531 34 -17.722656 L 35.359375 -11.121094 C 37.074219 -3.527344 42.773438 1.355469 50.730469 1.355469 Z M 27.128906 -36.171875 L 27.128906 -48.832031 L 32.464844 -48.832031 C 36.625 -48.832031 38.882812 -46.570312 38.882812 -42.5 C 38.882812 -38.433594 36.625 -36.171875 32.464844 -36.171875 Z M 27.128906 -36.171875 "/></g></g></g></svg>